<svg xmlns="http://www.w3.org/2000/svg" width="648" height="648" viewBox="0 0 648 648">
<g>
<path d="M 306.03 643.75 L 306.00 648.00 L 302.91 648.00 L 303.46 644.75 C303.96,641.82 304.70,634.93 308.12,601.17 C308.69,595.48 308.90,590.57 308.58,590.25 C308.26,589.93 308.00,590.56 308.00,591.65 C308.00,593.26 306.21,594.24 298.34,596.90 C291.04,599.37 288.17,599.93 286.59,599.19 C285.44,598.66 281.29,596.93 277.37,595.36 C273.45,593.79 270.22,592.07 270.20,591.54 C270.17,591.01 269.34,590.29 268.35,589.95 C267.07,589.50 268.50,588.66 273.22,587.09 C276.89,585.87 280.96,584.03 282.26,583.01 C285.06,580.81 293.77,577.76 303.73,575.49 C310.38,573.98 310.92,573.66 311.54,570.82 C311.91,569.14 311.91,565.01 311.56,561.64 C311.09,557.28 311.28,554.99 312.20,553.75 C314.16,551.10 318.89,550.13 323.50,551.43 C326.76,552.35 327.72,553.20 328.67,556.03 C329.31,557.94 329.58,561.41 329.28,563.75 C328.83,567.25 329.02,568.00 330.37,568.00 C331.28,568.00 348.10,562.63 367.76,556.06 C402.72,544.39 421.04,539.00 425.76,539.00 C427.06,539.00 427.88,538.62 427.60,538.15 C427.31,537.69 429.87,536.55 433.29,535.62 C442.96,533.00 480.27,518.89 482.50,517.01 C483.60,516.08 485.95,514.75 487.71,514.06 C489.48,513.36 492.31,511.46 494.01,509.84 C499.25,504.83 512.91,499.83 526.57,497.92 C534.37,496.83 549.70,497.34 557.10,498.94 C560.04,499.58 560.90,499.38 561.85,497.87 C564.53,493.58 563.41,491.76 551.78,481.38 C545.60,475.87 544.36,471.70 545.87,461.54 C548.25,445.51 546.78,419.56 542.61,404.26 C540.66,397.09 533.08,387.00 529.65,387.00 C529.38,387.00 528.87,390.04 528.52,393.75 C527.45,405.12 525.82,408.20 517.68,414.32 C506.81,422.49 497.79,428.02 479.32,437.86 C470.07,442.79 455.75,450.41 447.50,454.81 C423.90,467.38 404.40,479.12 350.50,513.18 C329.52,526.44 317.22,534.52 311.87,538.55 C308.92,540.77 302.01,545.95 296.53,550.05 C284.88,558.76 280.21,562.68 269.98,572.38 C265.84,576.29 261.58,580.17 260.50,581.00 L 260.46 581.03 C259.74,581.58 259.27,581.94 259.17,581.85 C258.97,581.69 260.13,579.90 263.50,574.67 L 263.59 574.54 C264.46,573.19 264.84,571.51 264.43,570.79 C263.67,569.49 260.17,565.02 239.86,539.50 C233.73,531.80 225.54,521.22 221.64,516.00 C217.75,510.77 214.32,506.27 214.01,506.00 C213.70,505.73 212.58,504.15 211.50,502.50 C202.67,488.93 196.00,472.89 196.00,465.25 C196.00,460.25 193.55,453.65 191.89,454.20 C190.42,454.69 186.65,461.45 183.46,469.30 C179.00,480.26 179.26,492.48 184.22,505.50 C186.17,510.59 192.38,519.12 201.63,529.39 C210.86,539.62 213.61,543.00 212.72,543.00 C211.80,543.00 191.01,519.55 187.84,514.93 C185.86,512.05 184.98,511.29 185.31,512.75 C185.58,513.99 185.44,515.00 184.98,515.00 C183.71,515.00 183.34,519.04 184.22,523.23 C185.63,529.97 192.75,543.57 196.26,546.25 C199.90,549.03 214.05,555.03 215.27,554.31 C215.69,554.06 215.75,550.98 215.39,547.47 C214.76,541.33 214.83,541.03 217.25,539.93 C220.62,538.40 224.63,540.33 227.79,545.00 C230.14,548.49 230.24,550.16 228.47,557.18 C227.86,559.60 228.41,560.30 234.15,564.46 C237.64,566.99 241.96,570.19 243.75,571.57 C248.20,575.01 257.50,586.33 256.22,586.76 C255.65,586.95 253.51,586.41 251.47,585.55 C247.20,583.77 246.68,583.68 247.41,584.86 C247.70,585.33 246.89,585.51 245.61,585.27 C241.98,584.57 241.96,586.87 245.52,594.46 C247.31,598.29 248.53,602.07 248.22,602.87 C247.90,603.71 248.09,604.06 248.68,603.70 C249.25,603.35 250.22,604.19 250.85,605.56 C251.88,607.84 251.82,607.97 250.13,607.07 C247.90,605.88 236.78,593.42 235.11,590.25 C234.46,589.01 233.37,588.00 232.69,588.00 C230.84,588.00 228.34,591.32 227.72,594.60 C227.42,596.20 226.53,600.42 225.73,604.00 C224.94,607.58 223.46,615.12 222.46,620.76 C220.75,630.29 220.47,630.97 218.56,630.38 C217.43,630.04 216.31,629.58 216.07,629.36 C215.07,628.46 222.37,556.76 224.18,549.69 C225.47,544.64 224.73,543.05 221.05,543.02 C219.92,543.00 219.87,543.27 220.80,544.20 C222.20,545.60 222.42,547.38 221.10,546.56 C220.60,546.25 219.69,547.46 219.07,549.23 C217.21,554.56 211.17,591.86 209.30,609.51 C208.35,618.58 207.21,626.00 206.78,626.00 C205.56,626.00 205.84,620.72 207.98,604.00 C209.85,589.42 210.51,577.82 209.30,580.86 C208.44,583.03 203.31,576.35 200.74,569.70 C198.81,564.72 197.52,563.17 191.50,558.60 C187.65,555.68 182.85,552.20 180.84,550.87 C178.82,549.53 174.14,545.75 170.44,542.47 C163.72,536.51 160.16,534.90 150.89,533.60 C147.16,533.08 146.73,533.35 137.91,541.75 C129.03,550.20 120.45,561.12 121.71,562.38 C122.05,562.72 121.82,563.00 121.19,563.00 C120.55,563.00 118.99,565.06 117.71,567.58 C115.72,571.50 115.20,571.94 114.13,570.65 C112.66,568.88 113.91,566.02 120.23,556.68 C126.82,546.95 136.32,537.75 151.01,526.88 L 165.00 516.54 L 165.00 511.20 C165.00,504.86 168.76,492.99 173.45,484.50 C175.28,481.20 177.99,474.46 179.49,469.52 C183.72,455.55 191.44,441.42 199.35,433.18 C204.57,427.75 213.26,421.52 223.24,416.06 L 230.98 411.83 L 227.96 407.67 C226.30,405.37 221.92,399.60 218.22,394.84 C201.51,373.32 195.37,357.29 191.53,325.16 C190.27,314.64 189.67,312.55 185.32,303.80 C182.67,298.47 180.10,294.09 179.61,294.05 C178.74,294.00 179.40,302.28 180.62,306.75 C181.00,308.14 180.79,309.00 180.08,309.00 C178.60,309.00 175.51,301.78 172.40,291.06 C171.06,286.42 169.80,282.47 169.61,282.28 C169.43,282.09 167.40,284.77 165.12,288.22 C156.41,301.38 153.36,303.38 156.59,293.81 C157.57,290.89 158.35,286.25 158.31,283.50 C158.25,278.46 154.27,252.94 153.42,252.09 C152.19,250.86 150.69,254.75 147.82,266.57 C146.10,273.68 144.50,280.17 144.28,281.00 C143.95,282.19 143.63,282.09 142.70,280.50 C141.97,279.25 141.53,273.50 141.52,265.25 C141.51,257.96 141.27,252.01 141.00,252.02 C140.73,252.03 137.12,252.93 133.00,254.02 C112.51,259.43 99.00,256.88 99.00,247.60 C99.00,237.95 109.34,227.36 143.50,202.03 C151.20,196.33 157.93,190.94 158.45,190.08 C158.98,189.21 162.63,175.68 166.57,160.00 C170.52,144.32 175.14,127.89 176.86,123.48 C185.23,101.91 205.04,82.07 234.00,66.25 C252.43,56.19 286.58,45.10 304.27,43.44 C308.94,43.00 312.21,42.14 313.50,41.00 C316.94,37.98 319.81,36.94 326.35,36.33 C333.83,35.63 338.79,37.00 343.39,41.04 C346.17,43.48 348.40,44.16 359.56,45.97 C373.49,48.24 391.88,53.89 402.13,59.07 C420.15,68.16 438.58,81.72 453.17,96.62 C476.02,119.95 482.67,134.12 487.13,169.00 C490.02,191.54 488.12,240.55 483.87,253.32 L 481.93 259.15 L 486.37 265.37 C490.95,271.79 498.20,279.00 500.06,279.00 C500.64,279.00 500.84,279.45 500.50,280.00 C499.49,281.64 493.42,281.14 486.94,278.90 C483.60,277.74 480.69,276.98 480.46,277.20 C479.98,277.68 483.38,292.26 484.90,296.25 C485.73,298.43 485.66,299.00 484.56,299.00 C483.02,299.00 477.00,291.32 477.00,289.36 C477.00,288.68 476.61,287.88 476.13,287.58 C475.65,287.29 474.77,290.87 474.16,295.55 C472.94,305.05 471.11,312.00 469.84,312.00 C469.38,312.00 469.00,310.45 469.00,308.56 C469.00,303.44 467.63,303.52 465.10,308.80 C462.58,314.06 460.16,317.86 451.90,329.50 C443.95,340.72 436.00,358.29 436.00,364.66 C436.00,366.95 436.19,367.00 445.75,367.01 C476.96,367.04 509.49,373.13 527.71,382.38 C542.31,389.78 546.09,396.91 549.51,423.50 L 551.90 442.04 L 557.34 450.27 C560.33,454.80 564.13,461.20 565.77,464.50 C572.33,477.67 578.00,498.37 578.00,509.13 C578.00,519.67 574.01,533.00 570.86,533.00 C570.41,533.00 567.67,531.52 564.77,529.70 C555.47,523.88 544.51,520.36 532.58,519.35 C528.25,518.98 524.24,518.10 523.49,517.35 C522.75,516.61 521.55,516.00 520.82,516.01 C520.09,516.01 525.58,520.01 533.00,524.90 C546.47,533.77 559.02,544.13 558.98,546.33 C558.97,546.98 558.18,546.54 557.23,545.38 C552.81,539.94 533.70,525.81 524.63,521.27 C520.88,519.39 520.53,519.39 513.63,521.06 C506.47,522.79 483.48,529.56 472.75,533.10 C469.58,534.15 465.97,535.00 464.73,535.00 C462.37,535.00 456.67,538.48 451.50,543.07 C449.85,544.54 446.02,547.89 443.00,550.52 C439.98,553.15 431.50,560.97 424.16,567.90 C416.82,574.83 410.45,580.64 410.00,580.80 C409.55,580.97 408.88,580.62 408.52,580.03 C408.15,579.43 408.45,579.07 409.18,579.23 C409.98,579.39 410.37,578.77 410.17,577.61 C409.93,576.19 410.27,575.89 411.57,576.39 C412.90,576.90 413.04,576.75 412.19,575.73 C411.37,574.74 412.19,572.59 415.54,566.96 C417.98,562.86 419.98,558.88 419.99,558.13 C420.01,555.81 409.85,557.15 407.18,559.82 C405.98,561.02 404.52,562.00 403.94,562.00 C403.35,562.00 400.31,563.18 397.19,564.62 C394.06,566.06 389.53,568.10 387.11,569.14 C384.70,570.19 380.15,572.63 377.01,574.57 C373.87,576.51 370.35,578.17 369.19,578.26 C368.03,578.35 367.29,578.62 367.54,578.87 C367.79,579.13 365.64,580.67 362.75,582.31 C353.87,587.34 338.75,600.75 331.84,609.71 C329.63,612.58 326.95,615.20 325.89,615.53 C324.84,615.87 324.23,616.57 324.55,617.08 C325.48,618.58 322.46,621.06 321.22,619.82 C319.27,617.87 318.00,620.10 318.10,625.31 C318.18,629.41 318.37,629.97 319.00,628.00 C319.67,625.92 319.82,625.83 319.92,627.50 C320.01,629.17 320.19,629.25 321.00,628.00 C321.86,626.67 321.96,626.67 321.91,628.00 C321.83,630.17 320.54,633.16 319.71,633.07 C317.49,632.84 317.00,633.20 317.00,635.06 C317.00,636.19 317.45,636.84 318.00,636.50 C318.55,636.16 319.00,636.39 319.00,637.00 C319.00,637.61 319.37,637.89 319.83,637.61 C320.28,637.32 320.45,639.55 320.20,642.55 L 319.75 648.00 L 313.71 648.00 L 314.31 640.75 C317.25,605.09 320.30,573.03 321.43,566.00 C322.18,561.33 322.46,557.14 322.05,556.70 C320.46,554.99 315.99,558.31 315.04,561.91 C313.38,568.15 306.08,634.41 306.03,643.75 ZM 262.50 440.10 C268.43,443.05 275.87,442.10 291.00,436.47 C330.57,421.75 367.77,397.52 379.84,378.63 C381.99,375.26 386.16,368.74 389.11,364.15 L 394.47 355.80 L 403.48 356.47 C408.79,356.87 413.57,356.74 415.10,356.16 C416.53,355.61 422.29,351.71 427.90,347.48 C438.85,339.23 449.60,327.11 454.37,317.65 C458.00,310.44 458.80,300.55 456.46,292.00 C452.84,278.76 448.86,274.00 441.43,274.00 C433.18,274.00 429.13,276.73 422.87,286.50 C419.45,291.83 419.02,292.19 419.01,289.75 C419.00,285.66 417.81,286.36 413.96,292.73 C410.92,297.78 403.40,307.64 399.29,312.00 C398.05,313.31 397.95,313.12 398.54,310.50 L 399.21 307.50 L 391.74 315.50 L 392.62 311.00 C394.20,302.91 393.52,289.13 391.10,280.50 C388.55,271.37 384.94,263.48 383.58,264.09 C383.07,264.32 382.77,269.45 382.91,275.50 L 383.16 286.50 L 379.25 279.00 C367.25,256.00 362.75,248.00 361.81,248.00 C360.39,248.00 361.83,265.26 363.33,266.20 C363.94,266.58 364.13,267.21 363.74,267.59 C363.35,267.98 364.27,269.40 365.77,270.74 C367.94,272.69 368.05,272.97 366.32,272.10 C363.60,270.73 363.00,270.72 363.00,272.03 C363.00,272.60 363.79,273.34 364.75,273.68 C365.71,274.02 367.95,275.37 369.73,276.69 L 372.97 279.08 L 370.25 284.10 C368.76,286.87 366.26,290.56 364.70,292.32 L 361.87 295.50 L 362.50 292.00 C362.60,291.41 362.71,290.85 362.80,290.33 C363.80,284.84 364.13,283.02 363.39,281.91 C362.95,281.25 362.14,280.84 360.87,280.06 C359.02,278.93 357.26,278.01 356.97,278.00 C356.68,278.00 356.62,279.76 356.82,281.91 C357.73,291.41 351.41,302.90 344.08,305.09 C340.87,306.06 339.77,305.92 336.27,304.14 C334.03,303.00 331.27,300.55 330.13,298.71 C326.63,293.05 326.34,282.37 329.49,274.75 C330.09,273.31 329.68,273.00 327.14,273.00 C322.58,273.00 314.02,276.52 307.52,281.07 C301.20,285.50 299.14,285.55 303.32,281.18 C306.51,277.86 306.73,276.58 304.00,277.29 C300.85,278.11 301.74,276.78 306.78,273.10 C316.82,265.77 328.83,264.24 346.95,267.98 C352.15,269.05 356.56,269.77 356.75,269.58 C358.83,267.50 334.92,260.44 328.38,261.20 C326.52,261.42 325.00,261.22 325.00,260.76 C325.00,259.66 315.17,260.91 312.00,262.42 C310.62,263.07 307.25,264.90 304.50,266.48 L 299.50 269.35 L 302.47 266.14 C304.10,264.38 307.81,261.77 310.71,260.35 C315.84,257.84 316.22,257.80 325.32,258.88 C333.73,259.87 350.44,263.59 355.44,265.59 C357.95,266.59 352.71,259.04 345.38,251.11 L 340.27 245.56 L 331.38 246.74 C313.04,249.17 303.04,250.98 293.63,253.59 C288.31,255.07 283.64,255.97 283.26,255.59 C281.03,253.36 291.33,246.85 303.30,242.91 C309.09,241.00 310.82,240.51 310.85,239.93 C310.86,239.69 310.59,239.44 310.21,239.08 C310.10,238.98 309.99,238.88 309.87,238.76 C308.12,237.06 282.96,226.71 282.27,227.40 C281.98,227.69 281.69,231.76 281.62,236.45 C281.56,241.14 281.16,244.99 280.75,244.99 C279.59,245.00 279.86,253.80 281.04,254.53 C281.61,254.88 281.81,256.02 281.48,257.05 C280.69,259.55 282.70,270.20 284.13,271.08 C284.75,271.46 284.93,272.30 284.54,272.93 C284.15,273.57 284.37,274.74 285.04,275.54 C285.70,276.34 285.85,276.99 285.37,276.97 C284.25,276.93 279.11,270.09 274.71,262.78 C272.82,259.64 270.98,257.35 270.63,257.70 C269.56,258.77 269.93,265.00 271.07,265.00 C271.65,265.00 271.87,265.84 271.54,266.86 C270.97,268.66 272.58,276.02 275.04,282.80 C276.97,288.14 275.32,287.75 269.73,281.54 C261.56,272.44 254.48,262.70 249.39,253.56 C244.09,244.05 241.98,243.27 242.03,250.86 C242.05,253.41 242.72,259.10 243.52,263.50 C245.57,274.88 245.42,275.19 241.14,268.50 C239.03,265.20 236.45,261.74 235.40,260.82 C231.06,256.99 207.18,249.23 203.77,250.53 C202.09,251.18 198.97,263.15 199.27,267.76 C199.43,270.24 199.84,270.88 200.99,270.40 C201.82,270.06 206.56,269.55 211.53,269.26 C219.37,268.82 221.23,269.05 225.77,271.00 C228.88,272.34 232.39,274.90 234.49,277.37 C236.42,279.64 238.63,282.25 239.41,283.17 C241.17,285.23 240.23,286.43 238.18,284.74 C236.86,283.65 236.75,284.10 237.32,288.27 C238.14,294.34 236.39,302.84 233.72,305.75 C231.33,308.36 226.50,308.74 223.40,306.57 C222.28,305.78 219.83,301.85 217.96,297.82 C215.03,291.52 214.55,289.43 214.53,282.80 C214.52,282.19 214.53,281.63 214.53,281.11 C214.54,278.14 214.54,276.53 213.76,275.89 C212.83,275.14 210.78,275.75 206.30,277.10 C205.64,277.30 204.93,277.52 204.16,277.75 L 198.81 279.33 L 199.50 284.85 C199.88,287.89 200.60,291.44 201.10,292.75 C202.22,295.70 202.26,298.00 201.19,298.00 C200.75,298.00 198.24,294.40 195.62,290.00 C193.01,285.60 190.22,282.00 189.43,282.00 C186.54,282.00 188.05,278.09 192.03,275.31 C195.58,272.83 195.98,272.15 195.47,269.50 C192.31,253.28 190.28,244.73 189.78,245.54 C188.62,247.42 186.77,263.09 187.36,266.03 C187.73,267.91 187.54,269.00 186.83,269.00 C184.69,269.00 187.03,288.33 190.65,300.50 C191.47,303.25 193.68,316.08 195.56,329.00 C201.23,368.02 203.20,372.02 236.71,412.81 C257.06,437.59 256.72,437.23 262.50,440.10 ZM 280.41 533.15 C282.66,534.05 287.20,534.83 290.50,534.88 C295.72,534.96 299.10,534.41 311.98,531.42 C313.36,531.10 321.57,523.84 330.48,515.05 C339.29,506.37 353.02,493.52 361.00,486.51 C391.90,459.35 398.98,452.89 401.58,449.49 L 404.26 445.97 L 402.66 440.73 C399.29,429.71 398.54,421.60 398.52,396.00 C398.51,381.98 398.87,367.91 399.32,364.75 C400.07,359.50 399.98,359.00 398.27,359.00 C395.74,359.00 391.48,363.75 384.67,374.15 C379.04,382.75 364.95,397.21 354.75,404.86 C352.14,406.82 350.00,408.78 350.00,409.21 C350.00,409.65 349.55,410.00 349.01,410.00 C348.46,410.00 342.73,413.97 336.26,418.81 C323.42,428.44 290.48,450.78 285.20,453.44 C283.38,454.36 281.66,455.72 281.37,456.47 C280.80,457.95 284.17,475.39 286.59,483.50 C288.36,489.41 291.00,502.63 291.00,505.55 C291.00,507.66 285.13,516.47 284.29,515.62 C284.03,515.37 284.83,513.80 286.05,512.14 C288.01,509.50 288.21,508.30 287.73,502.32 C287.07,494.19 284.40,484.99 282.71,485.02 C282.05,485.02 278.27,487.71 274.32,490.98 C267.39,496.73 260.67,504.94 260.67,507.67 C260.67,508.40 260.29,509.00 259.83,509.00 C259.36,509.00 259.15,511.27 259.36,514.04 C259.63,517.63 260.42,519.83 262.12,521.63 C265.02,524.73 274.82,530.90 280.41,533.15 ZM 322.00 528.58 C322.00,528.93 329.52,524.40 339.27,518.18 C395.46,482.33 414.40,470.56 430.54,461.47 L 442.58 454.68 L 437.94 450.34 C435.38,447.95 432.62,446.00 431.80,446.00 C430.97,446.00 426.30,448.40 421.40,451.34 C412.56,456.64 390.24,468.01 388.69,468.00 C388.25,468.00 388.20,467.48 388.60,466.85 C389.04,466.12 388.87,465.96 388.14,466.41 C387.49,466.81 387.20,467.51 387.48,467.96 C387.76,468.42 386.91,469.06 385.59,469.39 C382.31,470.21 349.19,499.95 334.25,515.50 C327.51,522.51 322.00,528.39 322.00,528.58 ZM 247.15 544.74 C250.64,548.73 253.54,551.99 253.59,551.99 C253.65,552.00 252.59,548.06 251.25,543.25 C248.23,532.36 244.49,515.06 241.92,500.00 C240.84,493.67 239.72,487.75 239.44,486.84 C237.39,480.27 226.97,488.36 220.53,501.53 L 217.80 507.11 L 229.30 522.31 C235.63,530.66 243.66,540.76 247.15,544.74 ZM 224.00 246.49 C232.08,250.05 233.41,250.47 232.60,249.16 C231.17,246.85 227.78,228.35 227.18,219.63 L 226.50 209.76 L 223.94 213.63 C222.53,215.76 219.07,220.92 216.24,225.10 C213.41,229.28 210.97,233.31 210.80,234.06 C210.64,234.81 209.71,236.31 208.75,237.40 C206.22,240.26 206.48,240.67 211.75,241.99 C214.36,242.65 219.88,244.68 224.00,246.49 ZM 422.00 305.84 C420.91,306.75 419.37,309.30 418.58,311.50 L 417.14 315.50 L 417.07 311.93 C416.94,305.46 419.73,299.61 425.80,293.62 C433.47,286.06 438.62,282.72 442.78,282.60 C448.12,282.45 450.08,285.81 450.73,296.23 C451.03,300.89 450.86,305.42 450.37,306.30 C449.79,307.35 449.44,305.27 449.37,300.19 C449.23,291.42 447.21,285.37 444.37,285.26 C440.95,285.12 436.32,287.03 433.95,289.56 C431.65,292.00 431.64,292.12 433.36,295.03 C435.40,298.49 434.81,298.78 431.32,296.04 C429.08,294.28 428.59,294.22 426.61,295.52 C425.39,296.32 423.42,298.30 422.22,299.92 L 420.04 302.87 L 423.36 302.33 C426.09,301.89 427.33,302.35 430.23,304.90 C432.17,306.60 434.00,309.23 434.29,310.73 C434.78,313.31 434.73,313.35 433.41,311.48 C428.82,305.01 425.17,303.20 422.00,305.84 ZM 325.00 608.16 C325.00,608.62 325.45,609.00 326.00,609.00 C326.55,609.00 327.00,608.30 327.00,607.44 C327.00,606.58 327.40,606.13 327.89,606.43 C328.38,606.74 329.04,605.98 329.36,604.74 C329.67,603.51 333.99,598.49 338.96,593.58 C343.93,588.67 348.00,584.33 348.00,583.94 C348.00,582.75 344.93,581.94 343.53,582.75 C342.82,583.16 339.18,586.37 335.44,589.88 C329.97,595.02 328.29,597.34 326.82,601.79 C325.82,604.83 325.00,607.69 325.00,608.16 ZM 406.26 339.36 C404.52,340.26 402.90,341.00 402.65,341.00 C401.20,341.00 408.63,329.72 410.84,328.57 C412.30,327.80 414.51,326.21 415.75,325.05 C417.51,323.39 418.00,323.26 418.00,324.45 C418.00,325.29 416.24,327.09 414.08,328.45 C409.47,331.36 408.86,332.16 409.93,333.89 C410.57,334.92 412.50,334.97 419.55,334.11 C426.94,333.20 428.82,332.59 431.18,330.33 C432.73,328.84 434.00,326.96 434.00,326.15 C434.00,325.33 434.25,324.91 434.55,325.22 C434.85,325.52 434.81,326.92 434.45,328.34 C433.49,332.18 427.81,334.98 418.02,336.44 C413.29,337.15 408.00,338.46 406.26,339.36 ZM 245.03 323.36 C242.20,329.23 237.11,336.42 237.04,334.66 C237.02,334.20 238.52,331.05 240.39,327.66 C242.25,324.27 244.33,319.70 245.01,317.50 C246.63,312.25 248.00,310.83 248.00,314.41 C248.00,315.95 246.67,319.98 245.03,323.36 ZM 428.00 365.46 C428.00,366.44 428.92,367.00 430.50,367.00 C432.75,367.00 433.00,366.60 433.00,363.00 C433.00,360.80 432.60,359.00 432.12,359.00 C430.91,359.00 428.00,363.57 428.00,365.46 ZM 242.90 343.84 C245.22,348.43 246.94,352.93 246.73,353.84 C246.52,354.79 244.55,351.66 242.16,346.56 C236.76,335.08 237.37,332.87 242.90,343.84 ZM 494.60 596.79 C494.68,599.34 494.20,600.08 491.94,600.87 C489.29,601.79 489.22,601.73 489.99,599.17 C491.47,594.25 492.24,592.91 493.37,593.29 C493.99,593.50 494.55,595.07 494.60,596.79 ZM 325.81 558.26 C326.33,560.18 326.47,560.24 326.80,558.68 C327.50,555.30 324.09,552.87 319.13,553.20 C316.67,553.37 314.48,554.05 314.25,554.72 C313.95,555.65 314.55,555.70 316.76,554.93 C320.54,553.62 324.98,555.25 325.81,558.26 ZM 346.01 284.51 C346.69,285.33 347.89,286.00 348.69,286.00 C350.84,286.00 349.96,280.60 347.75,280.18 C345.52,279.76 344.39,282.56 346.01,284.51 ZM 230.61 287.42 C231.27,289.13 232.58,289.49 233.39,288.17 C234.28,286.74 232.83,283.00 231.38,283.00 C229.92,283.00 229.60,284.80 230.61,287.42 ZM 307.18 275.36 C306.74,277.59 307.25,277.43 310.05,274.45 L 312.44 271.90 L 309.97 272.81 C308.61,273.32 307.35,274.46 307.18,275.36 ZM 254.50 385.00 C251.74,386.19 250.00,386.19 250.00,385.00 C250.00,384.45 251.46,384.03 253.25,384.07 C255.97,384.13 256.18,384.28 254.50,385.00 ZM 226.02 550.81 C226.01,551.53 226.45,551.84 227.00,551.50 C227.55,551.16 227.99,549.90 227.98,548.69 C227.97,546.91 227.79,546.78 227.00,548.00 C226.47,548.83 226.02,550.09 226.02,550.81 ZM 145.00 590.94 C145.00,592.07 144.55,593.00 144.00,593.00 C143.45,593.00 143.00,592.35 143.00,591.56 C143.00,590.77 143.45,589.84 144.00,589.50 C144.55,589.16 145.00,589.81 145.00,590.94 Z" fill="rgb(56,53,51)"/>
<path d="M 302.91 648.00 L 0.00 648.00 L 151.25 647.83 C233.09,647.74 298.55,647.52 298.55,647.33 C298.55,647.32 298.54,647.32 298.50,647.32 C296.30,647.13 288.10,646.07 280.27,644.97 C259.42,642.04 239.13,637.20 219.57,630.52 C220.65,630.30 221.10,628.31 222.46,620.76 C223.46,615.12 224.94,607.58 225.73,604.00 C226.53,600.42 227.42,596.20 227.72,594.60 C228.34,591.32 230.84,588.00 232.69,588.00 C233.37,588.00 234.46,589.01 235.11,590.25 C236.78,593.42 247.90,605.88 250.13,607.07 C251.82,607.97 251.88,607.84 250.85,605.56 C250.22,604.19 249.25,603.35 248.68,603.70 C248.09,604.06 247.90,603.71 248.22,602.87 C248.53,602.07 247.31,598.29 245.52,594.46 C241.96,586.87 241.98,584.57 245.61,585.27 C246.89,585.51 247.70,585.33 247.41,584.86 C246.68,583.68 247.20,583.77 251.47,585.55 C253.51,586.41 255.65,586.95 256.22,586.76 C257.50,586.33 248.20,575.01 243.75,571.57 C241.96,570.19 237.64,566.99 234.15,564.46 C228.41,560.30 227.86,559.60 228.47,557.18 C230.24,550.16 230.14,548.49 227.79,545.00 C224.63,540.33 220.62,538.40 217.25,539.93 C214.83,541.03 214.76,541.33 215.39,547.47 C215.75,550.98 215.69,554.06 215.27,554.31 C214.05,555.03 199.90,549.03 196.26,546.25 C192.75,543.57 185.63,529.97 184.22,523.23 C183.34,519.04 183.71,515.00 184.98,515.00 C185.44,515.00 185.58,513.99 185.31,512.75 C184.98,511.29 185.86,512.05 187.84,514.93 C191.01,519.55 211.80,543.00 212.72,543.00 C213.61,543.00 210.86,539.62 201.63,529.39 C192.38,519.12 186.17,510.59 184.22,505.50 C179.26,492.48 179.00,480.26 183.46,469.30 C186.65,461.45 190.42,454.69 191.89,454.20 C193.55,453.65 196.00,460.25 196.00,465.25 C196.00,472.89 202.67,488.93 211.50,502.50 C212.58,504.15 213.70,505.73 214.01,506.00 C214.32,506.27 217.75,510.77 221.64,516.00 C225.54,521.22 233.73,531.80 239.86,539.50 C260.17,565.02 263.67,569.49 264.43,570.79 C264.84,571.51 264.46,573.19 263.59,574.54 L 263.50 574.67 C260.13,579.90 258.97,581.69 259.17,581.85 C259.27,581.94 259.74,581.58 260.46,581.03 L 260.50 581.00 C261.58,580.17 265.84,576.29 269.98,572.38 C280.21,562.68 284.88,558.76 296.53,550.05 C302.01,545.95 308.92,540.77 311.87,538.55 C317.22,534.52 329.52,526.44 350.50,513.18 C404.40,479.12 423.90,467.38 447.50,454.81 C455.75,450.41 470.07,442.79 479.32,437.86 C497.79,428.02 506.81,422.49 517.68,414.32 C525.82,408.20 527.45,405.12 528.52,393.75 C528.87,390.04 529.38,387.00 529.65,387.00 C533.08,387.00 540.66,397.09 542.61,404.26 C546.78,419.56 548.25,445.51 545.87,461.54 C544.36,471.70 545.60,475.87 551.78,481.38 C563.41,491.76 564.53,493.58 561.85,497.87 C560.90,499.38 560.04,499.58 557.10,498.94 C549.70,497.34 534.37,496.83 526.57,497.92 C512.91,499.83 499.25,504.83 494.01,509.84 C492.31,511.46 489.48,513.36 487.71,514.06 C485.95,514.75 483.60,516.08 482.50,517.01 C480.27,518.89 442.96,533.00 433.29,535.62 C429.87,536.55 427.31,537.69 427.60,538.15 C427.88,538.62 427.06,539.00 425.76,539.00 C421.04,539.00 402.72,544.39 367.76,556.06 C348.10,562.63 331.28,568.00 330.37,568.00 C329.02,568.00 328.83,567.25 329.28,563.75 C329.58,561.41 329.31,557.94 328.67,556.03 C327.72,553.20 326.76,552.35 323.50,551.43 C318.89,550.13 314.16,551.10 312.20,553.75 C311.28,554.99 311.09,557.28 311.56,561.64 C311.91,565.01 311.91,569.14 311.54,570.82 C310.92,573.66 310.38,573.98 303.73,575.49 C293.77,577.76 285.06,580.81 282.26,583.01 C280.96,584.03 276.89,585.87 273.22,587.09 C268.50,588.66 267.07,589.50 268.35,589.95 C269.34,590.29 270.17,591.01 270.20,591.54 C270.22,592.07 273.45,593.79 277.37,595.36 C281.29,596.93 285.44,598.66 286.59,599.19 C288.17,599.93 291.04,599.37 298.34,596.90 C306.21,594.24 308.00,593.26 308.00,591.65 C308.00,590.56 308.26,589.93 308.58,590.25 C308.90,590.57 308.69,595.48 308.12,601.17 C304.70,634.93 303.96,641.82 303.46,644.75 ZM 571.92 532.54 C568.41,537.58 562.47,543.66 552.07,554.00 C513.44,592.42 470.35,618.10 417.00,634.49 C403.61,638.60 375.65,644.42 362.00,645.94 C356.77,646.52 351.15,647.16 349.50,647.35 C349.48,647.35 349.47,647.36 349.47,647.36 C349.47,647.55 415.35,647.77 497.25,647.85 L 648.00 648.00 L 319.75 648.00 L 320.20 642.55 C320.45,639.55 320.28,637.32 319.83,637.61 C319.37,637.89 319.00,637.61 319.00,637.00 C319.00,636.39 318.55,636.16 318.00,636.50 C317.45,636.84 317.00,636.19 317.00,635.06 C317.00,633.20 317.49,632.84 319.71,633.07 C320.54,633.16 321.83,630.17 321.91,628.00 C321.96,626.67 321.86,626.67 321.00,628.00 C320.19,629.25 320.01,629.17 319.92,627.50 C319.82,625.83 319.67,625.92 319.00,628.00 C318.37,629.97 318.18,629.41 318.10,625.31 C318.00,620.10 319.27,617.87 321.22,619.82 C322.46,621.06 325.48,618.58 324.55,617.08 C324.23,616.57 324.84,615.87 325.89,615.53 C326.95,615.20 329.63,612.58 331.84,609.71 C338.75,600.75 353.87,587.34 362.75,582.31 C365.64,580.67 367.79,579.13 367.54,578.87 C367.29,578.62 368.03,578.35 369.19,578.26 C370.35,578.17 373.87,576.51 377.01,574.57 C380.15,572.63 384.70,570.19 387.11,569.14 C389.53,568.10 394.06,566.06 397.19,564.62 C400.31,563.18 403.35,562.00 403.94,562.00 C404.52,562.00 405.98,561.02 407.18,559.82 C409.85,557.15 420.01,555.81 419.99,558.13 C419.98,558.88 417.98,562.86 415.54,566.96 C412.19,572.59 411.37,574.74 412.19,575.73 C413.04,576.75 412.90,576.90 411.57,576.39 C410.27,575.89 409.93,576.19 410.17,577.61 C410.37,578.77 409.98,579.39 409.18,579.23 C408.45,579.07 408.15,579.43 408.52,580.03 C408.88,580.62 409.55,580.97 410.00,580.80 C410.45,580.64 416.82,574.83 424.16,567.90 C431.50,560.97 439.98,553.15 443.00,550.52 C446.02,547.89 449.85,544.54 451.50,543.07 C456.67,538.48 462.37,535.00 464.73,535.00 C465.97,535.00 469.58,534.15 472.75,533.10 C483.48,529.56 506.47,522.79 513.63,521.06 C520.53,519.39 520.88,519.39 524.63,521.27 C533.70,525.81 552.81,539.94 557.23,545.38 C558.18,546.54 558.97,546.98 558.98,546.33 C559.02,544.13 546.47,533.77 533.00,524.90 C525.58,520.01 520.09,516.01 520.82,516.01 C521.55,516.00 522.75,516.61 523.49,517.35 C524.24,518.10 528.25,518.98 532.58,519.35 C544.51,520.36 555.47,523.88 564.77,529.70 C567.67,531.52 570.41,533.00 570.86,533.00 C571.21,533.00 571.57,532.84 571.92,532.54 ZM 145.00 590.94 C145.00,589.81 144.55,589.16 144.00,589.50 C143.45,589.84 143.00,590.77 143.00,591.56 C143.00,592.00 143.14,592.39 143.35,592.66 C138.47,589.37 133.66,585.94 128.93,582.37 C122.43,577.47 116.54,572.84 114.67,571.18 C115.44,571.66 116.08,570.78 117.71,567.58 C118.99,565.06 120.55,563.00 121.19,563.00 C121.82,563.00 122.05,562.72 121.71,562.38 C120.45,561.12 129.03,550.20 137.91,541.75 C146.73,533.35 147.16,533.08 150.89,533.60 C160.16,534.90 163.72,536.51 170.44,542.47 C174.14,545.75 178.82,549.53 180.84,550.87 C182.85,552.20 187.65,555.68 191.50,558.60 C197.52,563.17 198.81,564.72 200.74,569.70 C203.31,576.35 208.44,583.03 209.30,580.86 C210.51,577.82 209.85,589.42 207.98,604.00 C206.14,618.41 205.67,624.33 206.36,625.68 C184.45,617.12 163.53,606.19 143.84,592.98 C143.89,592.99 143.94,593.00 144.00,593.00 C144.55,593.00 145.00,592.07 145.00,590.94 ZM 290.93 504.48 C290.52,500.23 288.19,488.86 286.59,483.50 C284.17,475.39 280.80,457.95 281.37,456.47 C281.66,455.72 283.38,454.36 285.20,453.44 C290.48,450.78 323.42,428.44 336.26,418.81 C342.73,413.97 348.46,410.00 349.01,410.00 C349.55,410.00 350.00,409.65 350.00,409.21 C350.00,408.78 352.14,406.82 354.75,404.86 C364.95,397.21 379.04,382.75 384.67,374.15 C391.48,363.75 395.74,359.00 398.27,359.00 C399.98,359.00 400.07,359.50 399.32,364.75 C398.87,367.91 398.51,381.98 398.52,396.00 C398.53,407.62 398.69,415.63 399.17,421.95 C398.03,413.89 397.69,412.65 397.29,413.74 C396.78,415.15 392.61,413.31 387.42,409.37 C384.90,407.44 384.06,407.25 382.77,408.26 C381.25,409.46 372.21,420.02 365.00,429.02 C353.45,443.45 349.19,448.30 336.99,460.88 C323.50,474.79 295.66,498.00 292.47,498.00 C291.39,498.00 291.00,499.21 291.00,502.55 C291.00,503.23 290.98,503.87 290.93,504.48 ZM 306.78 273.10 C305.41,274.10 304.34,274.93 303.59,275.59 C305.48,273.84 308.67,271.26 310.91,269.76 C312.33,268.80 313.12,268.01 312.65,268.01 C312.19,268.00 310.61,268.85 309.15,269.89 C307.69,270.93 304.25,272.01 301.50,272.29 C298.75,272.57 294.48,273.09 292.00,273.45 C289.52,273.81 286.92,274.16 286.21,274.22 C285.50,274.28 285.14,274.93 285.43,275.67 C285.52,275.92 285.56,276.14 285.55,276.32 C285.45,276.10 285.27,275.83 285.04,275.54 C284.37,274.74 284.15,273.57 284.54,272.93 C284.93,272.30 284.75,271.46 284.13,271.08 C282.70,270.20 280.69,259.55 281.48,257.05 C281.81,256.02 281.61,254.88 281.04,254.53 C279.86,253.80 279.59,245.00 280.75,244.99 C281.16,244.99 281.56,241.14 281.62,236.45 C281.69,231.76 281.98,227.69 282.27,227.40 C282.96,226.71 308.12,237.06 309.87,238.76 C309.99,238.88 310.10,238.98 310.21,239.08 C310.59,239.44 310.86,239.69 310.85,239.93 C310.82,240.51 309.09,241.00 303.30,242.91 C291.33,246.85 281.03,253.36 283.26,255.59 C283.64,255.97 288.31,255.07 293.63,253.59 C303.04,250.98 313.04,249.17 331.38,246.74 L 340.27 245.56 L 345.38 251.11 C352.71,259.04 357.95,266.59 355.44,265.59 C350.44,263.59 333.73,259.87 325.32,258.88 C316.22,257.80 315.84,257.84 310.71,260.35 C307.81,261.77 304.10,264.38 302.47,266.14 L 299.50 269.35 L 304.50 266.48 C307.25,264.90 310.62,263.07 312.00,262.42 C315.17,260.91 325.00,259.66 325.00,260.76 C325.00,261.22 326.52,261.42 328.38,261.20 C334.92,260.44 358.83,267.50 356.75,269.58 C356.56,269.77 352.15,269.05 346.95,267.98 C328.83,264.24 316.82,265.77 306.78,273.10 ZM 322.00 528.58 C322.00,528.39 327.51,522.51 334.25,515.50 C349.19,499.95 382.31,470.21 385.59,469.39 C386.91,469.06 387.76,468.42 387.48,467.96 C387.20,467.51 387.49,466.81 388.14,466.41 C388.87,465.96 389.04,466.12 388.60,466.85 C388.20,467.48 388.25,468.00 388.69,468.00 C390.24,468.01 412.56,456.64 421.40,451.34 C426.30,448.40 430.97,446.00 431.80,446.00 C432.62,446.00 435.38,447.95 437.94,450.34 L 442.58 454.68 L 430.54 461.47 C414.40,470.56 395.46,482.33 339.27,518.18 C329.52,524.40 322.00,528.93 322.00,528.58 ZM 275.81 286.00 C275.89,286.82 275.71,287.00 275.31,287.00 C274.81,287.00 272.67,285.22 270.54,283.04 C268.41,280.86 266.26,279.34 265.76,279.65 C264.56,280.39 245.39,285.90 241.85,286.53 C239.93,286.87 238.80,286.48 238.08,285.26 C237.31,283.93 237.17,284.60 237.50,288.00 C237.70,289.96 237.64,292.18 237.39,294.40 C237.58,292.28 237.58,290.16 237.32,288.27 C236.75,284.10 236.86,283.65 238.18,284.74 C240.23,286.43 241.17,285.23 239.41,283.17 C238.63,282.25 236.42,279.64 234.49,277.37 C232.39,274.90 228.88,272.34 225.77,271.00 C221.23,269.05 219.37,268.82 211.53,269.26 C206.56,269.55 201.82,270.06 200.99,270.40 C199.84,270.88 199.43,270.24 199.27,267.76 C198.97,263.15 202.09,251.18 203.77,250.53 C207.18,249.23 231.06,256.99 235.40,260.82 C236.45,261.74 239.03,265.20 241.14,268.50 C245.42,275.19 245.57,274.88 243.52,263.50 C242.72,259.10 242.05,253.41 242.03,250.86 C241.98,243.27 244.09,244.05 249.39,253.56 C254.48,262.70 261.56,272.44 269.73,281.54 C273.69,285.95 275.68,287.42 275.81,286.00 ZM 247.15 544.74 C243.66,540.76 235.63,530.66 229.30,522.31 L 217.80 507.11 L 220.53 501.53 C226.97,488.36 237.39,480.27 239.44,486.84 C239.72,487.75 240.84,493.67 241.92,500.00 C244.49,515.06 248.23,532.36 251.25,543.25 C252.59,548.06 253.65,552.00 253.59,551.99 C253.54,551.99 250.64,548.73 247.15,544.74 ZM 271.19 528.29 C267.32,525.91 263.70,523.32 262.12,521.63 C260.42,519.83 259.63,517.63 259.36,514.04 C259.15,511.27 259.36,509.00 259.83,509.00 C260.29,509.00 260.67,508.40 260.67,507.67 C260.67,504.94 267.39,496.73 274.32,490.98 C278.27,487.71 282.05,485.02 282.71,485.02 C284.40,484.99 287.07,494.19 287.73,502.32 C288.21,508.30 288.01,509.50 286.05,512.14 C284.83,513.80 284.03,515.37 284.29,515.62 C284.32,515.66 284.36,515.67 284.41,515.68 C283.07,516.95 281.47,518.37 279.56,520.00 C274.85,524.05 271.00,527.65 271.00,528.00 C271.00,528.07 271.07,528.17 271.19,528.29 ZM 306.03 643.75 C306.08,634.41 313.38,568.15 315.04,561.91 C315.99,558.31 320.46,554.99 322.05,556.70 C322.46,557.14 322.18,561.33 321.43,566.00 C320.30,573.03 317.25,605.09 314.31,640.75 L 313.71 648.00 L 306.00 648.00 ZM 216.03 629.29 C212.97,628.20 209.92,627.07 206.88,625.89 C207.37,624.92 208.42,617.93 209.30,609.51 C211.17,591.86 217.21,554.56 219.07,549.23 C219.69,547.46 220.60,546.25 221.10,546.56 C222.42,547.38 222.20,545.60 220.80,544.20 C219.87,543.27 219.92,543.00 221.05,543.02 C224.73,543.05 225.47,544.64 224.18,549.69 C222.39,556.66 215.27,626.51 216.03,629.29 ZM 422.00 305.84 C425.17,303.20 428.82,305.01 433.41,311.48 C434.73,313.35 434.78,313.31 434.29,310.73 C434.28,310.66 434.26,310.58 434.24,310.50 C435.41,313.23 436.00,316.47 436.00,320.22 C436.00,324.34 435.42,327.39 433.89,329.70 C434.15,329.26 434.33,328.81 434.45,328.34 C434.81,326.92 434.85,325.52 434.55,325.22 C434.25,324.91 434.00,325.33 434.00,326.15 C434.00,326.96 432.73,328.84 431.18,330.33 C428.82,332.59 426.94,333.20 419.55,334.11 C412.50,334.97 410.57,334.92 409.93,333.89 C408.86,332.16 409.47,331.36 414.08,328.45 C416.24,327.09 418.00,325.29 418.00,324.45 C418.00,323.61 417.76,323.43 417.00,323.97 L 417.00 316.48 C417.00,315.13 417.03,313.87 417.09,312.69 L 417.14 315.50 L 418.58 311.50 C419.37,309.30 420.91,306.75 422.00,305.84 ZM 224.00 246.49 C219.88,244.68 214.36,242.65 211.75,241.99 C206.48,240.67 206.22,240.26 208.75,237.40 C209.71,236.31 210.64,234.81 210.80,234.06 C210.97,233.31 213.41,229.28 216.24,225.10 C219.07,220.92 222.53,215.76 223.94,213.63 L 226.50 209.76 L 227.18 219.63 C227.78,228.35 231.17,246.85 232.60,249.16 C233.41,250.47 232.08,250.05 224.00,246.49 ZM 200.16 296.95 C199.58,296.36 198.87,295.46 198.08,294.24 C196.38,291.62 195.52,290.96 195.17,292.01 C194.55,293.87 191.78,295.98 190.76,295.35 C189.85,294.79 189.81,296.53 190.62,300.41 C187.02,288.23 184.69,269.00 186.83,269.00 C187.54,269.00 187.73,267.91 187.36,266.03 C186.77,263.09 188.62,247.42 189.78,245.54 C190.28,244.73 192.31,253.28 195.47,269.50 C195.98,272.15 195.58,272.83 192.03,275.31 C188.05,278.09 186.54,282.00 189.43,282.00 C190.22,282.00 193.01,285.60 195.62,290.00 C197.39,292.96 199.10,295.57 200.16,296.95 ZM 450.44 292.79 C451.19,298.36 451.16,305.37 450.01,309.45 C448.43,315.10 447.00,314.41 447.00,307.99 C447.00,305.30 446.46,301.90 445.79,300.44 C444.65,297.93 444.27,297.81 438.79,298.21 C433.76,298.57 432.72,298.33 430.88,296.37 C428.97,294.34 428.55,294.25 426.61,295.52 C428.59,294.22 429.08,294.28 431.32,296.04 C434.81,298.78 435.40,298.49 433.36,295.03 C431.64,292.12 431.65,292.00 433.95,289.56 C436.32,287.03 440.95,285.12 444.37,285.26 C447.21,285.37 449.23,291.42 449.37,300.19 C449.44,305.27 449.79,307.35 450.37,306.30 C450.86,305.42 451.03,300.89 450.73,296.23 C450.66,294.99 450.56,293.84 450.44,292.79 ZM 375.60 272.03 C373.44,268.51 372.00,267.17 372.00,268.95 C372.00,271.20 368.99,273.23 366.39,272.73 C363.73,272.22 363.70,272.29 368.69,275.95 C367.16,274.90 365.53,273.95 364.75,273.68 C363.79,273.34 363.00,272.60 363.00,272.03 C363.00,270.72 363.60,270.73 366.32,272.10 C368.05,272.97 367.94,272.69 365.77,270.74 C364.27,269.40 363.35,267.98 363.74,267.59 C364.13,267.21 363.94,266.58 363.33,266.20 C361.83,265.26 360.39,248.00 361.81,248.00 C362.65,248.00 366.32,254.35 375.60,272.03 ZM 325.00 608.16 C325.00,607.69 325.82,604.83 326.82,601.79 C328.29,597.34 329.97,595.02 335.44,589.88 C339.18,586.37 342.82,583.16 343.53,582.75 C344.93,581.94 348.00,582.75 348.00,583.94 C348.00,584.33 343.93,588.67 338.96,593.58 C333.99,598.49 329.67,603.51 329.36,604.74 C329.04,605.98 328.38,606.74 327.89,606.43 C327.40,606.13 327.00,606.58 327.00,607.44 C327.00,608.30 326.55,609.00 326.00,609.00 C325.45,609.00 325.00,608.62 325.00,608.16 ZM 285.19 276.92 C284.76,277.12 284.04,276.88 283.54,276.07 C283.20,275.52 281.08,275.77 278.40,276.69 C274.50,278.02 273.92,278.56 274.42,280.37 C274.76,281.58 275.03,282.57 275.24,283.38 C275.18,283.19 275.11,283.00 275.04,282.80 C272.58,276.02 270.97,268.66 271.54,266.86 C271.87,265.84 271.65,265.00 271.07,265.00 C269.93,265.00 269.56,258.77 270.63,257.70 C270.98,257.35 272.82,259.64 274.71,262.78 C278.90,269.74 283.77,276.28 285.19,276.92 ZM 245.03 323.36 C246.47,320.38 247.68,316.89 247.95,315.05 C247.52,318.67 244.58,325.30 241.08,330.39 L 238.12 334.68 L 240.97 340.17 C237.31,333.62 237.47,336.60 242.16,346.56 C243.97,350.43 245.54,353.16 246.29,353.84 C245.65,353.93 244.29,353.08 242.22,351.35 C235.39,345.66 233.88,342.10 237.08,334.44 C237.05,334.54 237.03,334.62 237.04,334.66 C237.11,336.42 242.20,329.23 245.03,323.36 ZM 341.50 308.00 C341.16,308.55 336.86,309.00 331.94,309.00 C326.65,309.00 323.00,308.59 323.00,308.00 C323.00,307.40 326.85,307.00 332.56,307.00 C338.68,307.00 341.90,307.36 341.50,308.00 ZM 494.60 596.79 C494.55,595.07 493.99,593.50 493.37,593.29 C492.24,592.91 491.47,594.25 489.99,599.17 C489.22,601.73 489.29,601.79 491.94,600.87 C494.20,600.08 494.68,599.34 494.60,596.79 ZM 325.81 558.26 C324.98,555.25 320.54,553.62 316.76,554.93 C314.55,555.70 313.95,555.65 314.25,554.72 C314.48,554.05 316.67,553.37 319.13,553.20 C324.09,552.87 327.50,555.30 326.80,558.68 C326.47,560.24 326.33,560.18 325.81,558.26 ZM 274.59 441.31 C279.02,440.57 284.58,438.86 292.02,436.07 C316.97,426.73 346.21,410.57 360.70,398.11 C373.52,387.08 375.79,384.77 385.70,369.47 C383.48,372.92 381.23,376.44 379.84,378.63 C367.77,397.52 330.57,421.75 291.00,436.47 C284.14,439.02 278.87,440.61 274.59,441.31 ZM 307.18 275.36 C307.35,274.46 308.61,273.32 309.97,272.81 L 312.44 271.90 L 310.05 274.45 C307.25,277.43 306.74,277.59 307.18,275.36 ZM 229.50 312.00 C229.16,312.55 228.04,313.00 227.00,313.00 C225.96,313.00 224.84,312.55 224.50,312.00 C224.14,311.42 225.18,311.00 227.00,311.00 C228.82,311.00 229.86,311.42 229.50,312.00 ZM 226.02 550.81 C226.02,550.09 226.47,548.83 227.00,548.00 C227.79,546.78 227.97,546.91 227.98,548.69 C227.99,549.90 227.55,551.16 227.00,551.50 C226.45,551.84 226.01,551.53 226.02,550.81 ZM 191.31 303.36 C191.35,303.52 191.39,303.69 191.44,303.86 C192.23,306.96 194.27,319.31 195.97,331.29 C196.82,337.28 197.60,342.40 198.44,346.97 C200.99,360.36 204.10,368.96 211.32,379.98 C216.84,388.39 224.78,398.30 236.71,412.81 C224.78,398.29 216.84,388.42 211.32,379.98 C203.97,368.79 200.90,360.24 198.44,346.97 C197.47,341.82 196.57,335.97 195.56,329.00 C194.06,318.72 192.36,308.49 191.31,303.36 ZM 402.00 438.48 C402.21,439.22 402.43,439.97 402.66,440.73 L 404.26 445.97 L 401.58 449.49 C400.65,450.71 399.14,452.32 396.18,455.13 C402.38,449.15 403.80,446.76 403.64,444.49 C403.56,443.44 403.14,442.41 402.71,441.06 C402.49,440.38 402.25,439.50 402.00,438.48 ZM 418.28 336.41 C413.41,337.13 408.00,338.46 406.26,339.36 C408.00,338.46 413.29,337.15 418.02,336.44 C425.03,335.40 429.93,333.66 432.50,331.35 C429.82,333.91 425.35,335.35 418.28,336.41 ZM 287.15 512.87 C288.38,511.16 289.69,509.02 290.42,507.41 C289.88,509.22 288.88,510.90 287.15,512.87 ZM 576.99 519.27 C576.53,522.50 575.88,525.16 574.67,527.80 C575.58,525.43 576.40,522.45 576.99,519.27 ZM 243.74 345.55 C245.82,349.70 246.82,352.24 246.72,353.29 C246.51,351.95 245.33,348.89 243.74,345.55 ZM 409.26 330.00 C408.01,331.41 406.43,333.58 405.11,335.62 C406.31,333.40 407.68,331.55 409.26,330.00 ZM 573.73 485.53 C575.34,490.89 576.46,495.69 577.12,500.11 C576.38,495.63 575.20,490.60 573.73,485.53 ZM 280.41 533.15 C278.94,532.56 277.18,531.69 275.33,530.69 C276.95,531.49 278.96,532.43 281.30,533.46 C280.97,533.36 280.67,533.25 280.41,533.15 ZM 439.13 283.44 C441.66,282.35 443.78,282.19 445.53,282.94 C444.73,282.67 443.82,282.57 442.78,282.60 C441.65,282.63 440.44,282.90 439.13,283.44 ZM 201.66 297.78 C202.21,297.14 202.01,295.17 201.10,292.75 C202.28,295.87 202.36,297.60 201.66,297.78 ZM 419.32 302.18 C420.68,299.25 422.75,296.64 425.80,293.62 C422.91,296.48 420.76,299.30 419.32,302.18 ZM 414.01 326.49 C413.03,327.23 411.94,327.96 411.06,328.44 C411.52,328.09 412.00,327.76 412.49,327.45 ZM 563.62 460.53 C561.78,457.29 559.37,453.35 557.34,450.27 C559.81,454.00 561.84,457.31 563.62,460.53 ZM 245.95 314.79 C245.66,315.53 245.34,316.43 245.01,317.50 C244.51,319.11 243.26,322.00 241.90,324.76 C243.30,321.88 244.53,319.03 245.00,317.50 C245.33,316.44 245.65,315.53 245.95,314.79 ZM 302.55 277.52 C302.21,277.53 302.00,277.47 302.00,277.34 C302.00,277.23 302.18,276.99 302.49,276.66 C302.04,277.21 302.06,277.49 302.55,277.52 ZM 248.00 314.29 C247.98,312.45 247.59,312.01 246.97,312.80 C247.60,311.98 248.00,312.39 248.00,314.22 C248.00,314.24 248.00,314.27 248.00,314.29 ZM 234.26 305.06 C234.09,305.32 233.91,305.55 233.73,305.75 C231.32,308.35 226.50,308.74 223.40,306.57 C226.50,308.74 231.33,308.36 233.72,305.75 C233.90,305.55 234.08,305.32 234.26,305.06 ZM 383.15 286.49 L 383.15 286.50 L 383.02 286.24 Z" fill="rgb(155,137,123)"/>
<path d="M 262.50 440.10 C256.72,437.23 257.06,437.59 236.71,412.81 C224.78,398.29 216.85,388.43 211.32,379.99 L 211.32 379.98 C204.10,368.96 200.99,360.36 198.44,346.97 L 198.44 346.97 C197.60,342.40 196.82,337.28 195.97,331.29 C194.27,319.31 192.23,306.96 191.44,303.86 C191.39,303.69 191.35,303.52 191.31,303.36 C191.04,302.04 190.82,301.06 190.65,300.50 L 190.62 300.41 C189.81,296.53 189.85,294.79 190.76,295.35 C191.78,295.98 194.55,293.87 195.17,292.01 C195.52,290.96 196.38,291.62 198.08,294.24 C198.87,295.46 199.58,296.36 200.16,296.95 C200.68,297.62 201.05,298.00 201.19,298.00 C201.38,298.00 201.54,297.92 201.66,297.78 C202.36,297.60 202.28,295.87 201.10,292.75 C200.60,291.44 199.88,287.89 199.50,284.85 L 198.81 279.33 L 204.16 277.75 C204.93,277.52 205.64,277.30 206.30,277.10 C210.78,275.75 212.83,275.14 213.76,275.89 C214.54,276.53 214.54,278.14 214.53,281.11 C214.53,281.63 214.52,282.19 214.53,282.80 C214.53,285.25 214.60,287.08 214.84,288.74 C214.25,287.15 212.05,286.76 207.74,287.42 C201.46,288.37 200.62,289.16 201.42,293.43 C202.11,297.09 209.45,306.00 211.78,306.00 C212.40,306.00 213.26,306.65 213.71,307.44 C214.15,308.24 215.64,309.33 217.01,309.88 C218.38,310.43 221.86,310.90 224.75,310.94 C228.78,310.99 230.00,310.65 230.00,309.50 C230.00,308.65 229.10,308.00 227.93,308.00 C227.57,308.00 227.14,307.95 226.68,307.86 C227.90,308.06 229.16,308.00 230.32,307.70 C231.64,307.36 232.85,306.70 233.73,305.75 C233.91,305.55 234.09,305.32 234.26,305.06 C235.83,302.80 237.01,298.61 237.39,294.40 C237.64,292.18 237.70,289.96 237.50,288.00 C237.17,284.60 237.31,283.93 238.08,285.26 C238.80,286.48 239.93,286.87 241.85,286.53 C245.39,285.90 264.56,280.39 265.76,279.65 C266.26,279.34 268.41,280.86 270.54,283.04 C272.67,285.22 274.81,287.00 275.31,287.00 C275.71,287.00 275.89,286.82 275.81,286.00 C275.85,285.50 275.66,284.62 275.24,283.38 C275.03,282.57 274.76,281.58 274.42,280.37 C273.92,278.56 274.50,278.02 278.40,276.69 C281.08,275.77 283.20,275.52 283.54,276.07 C284.04,276.88 284.76,277.12 285.19,276.92 C285.26,276.95 285.32,276.97 285.37,276.97 C285.68,276.98 285.73,276.72 285.55,276.32 C285.56,276.14 285.52,275.92 285.43,275.67 C285.14,274.93 285.50,274.28 286.21,274.22 C286.92,274.16 289.52,273.81 292.00,273.45 C294.48,273.09 298.75,272.57 301.50,272.29 C304.25,272.01 307.69,270.93 309.15,269.89 C310.61,268.85 312.19,268.00 312.65,268.01 C313.12,268.01 312.33,268.80 310.91,269.76 C308.67,271.26 305.48,273.84 303.59,275.59 C303.09,276.02 302.72,276.37 302.49,276.66 C302.18,276.99 302.00,277.23 302.00,277.34 C302.00,277.47 302.21,277.53 302.55,277.52 C302.86,277.54 303.34,277.46 304.00,277.29 C306.73,276.58 306.51,277.86 303.32,281.18 C299.14,285.55 301.20,285.50 307.52,281.07 C314.02,276.52 322.58,273.00 327.14,273.00 C329.68,273.00 330.09,273.31 329.49,274.75 C328.25,277.75 327.54,281.23 327.36,284.69 L 327.21 279.58 L 322.36 279.85 C316.75,280.16 310.03,281.75 309.94,282.79 C309.90,283.18 309.72,285.06 309.53,286.98 C309.07,291.76 312.90,298.96 318.10,303.08 C322.05,306.20 322.86,306.43 332.39,306.97 C332.56,306.98 332.72,306.99 332.88,307.00 C332.78,307.00 332.67,307.00 332.56,307.00 C326.85,307.00 323.00,307.40 323.00,308.00 C323.00,308.59 326.65,309.00 331.94,309.00 C336.86,309.00 341.16,308.55 341.50,308.00 C341.74,307.61 340.66,307.33 338.44,307.17 C343.90,307.16 346.98,306.51 347.98,305.19 C348.27,304.81 349.85,303.79 351.50,302.93 C353.17,302.06 354.44,300.62 354.36,299.69 C354.29,298.77 354.62,298.26 355.09,298.56 C356.35,299.34 360.16,297.07 359.47,295.95 C359.15,295.43 359.29,295.00 359.78,295.00 C360.27,295.00 361.22,293.80 361.89,292.34 C363.16,289.55 363.08,289.41 358.82,286.97 C357.67,286.31 357.12,286.62 356.24,289.23 C356.82,286.79 357.05,284.29 356.82,281.91 C356.62,279.76 356.68,278.00 356.97,278.00 C357.26,278.01 359.02,278.93 360.87,280.06 C362.14,280.84 362.95,281.25 363.39,281.91 C364.13,283.02 363.80,284.84 362.80,290.33 C362.71,290.85 362.60,291.41 362.50,292.00 L 361.87 295.50 L 364.70 292.32 C366.26,290.56 368.76,286.87 370.25,284.10 L 372.97 279.08 L 369.73 276.69 C369.40,276.44 369.05,276.19 368.69,275.95 C363.70,272.29 363.73,272.22 366.39,272.73 C368.99,273.23 372.00,271.20 372.00,268.95 C372.00,267.17 373.44,268.51 375.60,272.03 C376.73,274.18 377.94,276.50 379.25,279.00 L 383.02 286.24 L 383.15 286.50 L 383.15 286.49 L 383.16 286.50 L 382.91 275.50 C382.77,269.45 383.07,264.32 383.58,264.09 C384.94,263.48 388.55,271.37 391.10,280.50 C393.52,289.13 394.20,302.91 392.62,311.00 L 391.74 315.50 L 399.21 307.50 L 398.54 310.50 C397.95,313.12 398.05,313.31 399.29,312.00 C403.40,307.64 410.92,297.78 413.96,292.73 C417.81,286.36 419.00,285.66 419.01,289.75 C419.02,292.19 419.45,291.83 422.87,286.50 C429.13,276.73 433.18,274.00 441.43,274.00 C448.86,274.00 452.84,278.76 456.46,292.00 C458.80,300.55 458.00,310.44 454.37,317.65 C449.60,327.11 438.85,339.23 427.90,347.48 C422.29,351.71 416.53,355.61 415.10,356.16 C413.57,356.74 408.79,356.87 403.48,356.47 L 394.47 355.80 L 389.11 364.15 C388.07,365.76 386.89,367.60 385.70,369.47 C375.79,384.77 373.52,387.08 360.70,398.11 C346.21,410.57 316.97,426.73 292.02,436.07 C284.58,438.86 279.02,440.57 274.59,441.31 C269.44,442.16 265.74,441.71 262.50,440.10 ZM 290.93 504.48 C290.98,503.87 291.00,503.23 291.00,502.55 C291.00,499.21 291.39,498.00 292.47,498.00 C295.66,498.00 323.50,474.79 336.99,460.88 C349.19,448.30 353.45,443.45 365.00,429.02 C372.21,420.02 381.25,409.46 382.77,408.26 C384.06,407.25 384.90,407.44 387.42,409.37 C392.61,413.31 396.78,415.15 397.29,413.74 C397.69,412.65 398.03,413.89 399.17,421.95 C399.69,428.60 400.56,433.37 402.00,438.48 C402.25,439.50 402.49,440.38 402.71,441.06 C403.14,442.41 403.56,443.44 403.64,444.49 C403.80,446.76 402.38,449.15 396.18,455.13 C390.86,460.17 380.84,469.08 361.00,486.51 C353.02,493.52 339.29,506.37 330.48,515.05 C321.57,523.84 313.36,531.10 311.98,531.42 C299.10,534.41 295.72,534.96 290.50,534.88 C287.59,534.84 283.72,534.23 281.30,533.46 C278.96,532.43 276.95,531.49 275.33,530.69 C273.97,529.95 272.57,529.14 271.19,528.29 C271.07,528.17 271.00,528.07 271.00,528.00 C271.00,527.65 274.85,524.05 279.56,520.00 C281.47,518.37 283.07,516.95 284.41,515.68 C284.86,515.73 285.97,514.51 287.15,512.87 C288.88,510.90 289.88,509.22 290.42,507.41 C290.78,506.62 291.00,505.96 291.00,505.55 C291.00,505.28 290.98,504.92 290.93,504.48 ZM 406.26 339.36 L 406.26 339.36 C408.00,338.46 413.41,337.13 418.28,336.41 C425.35,335.35 429.82,333.91 432.50,331.35 C433.09,330.83 433.55,330.28 433.89,329.70 C435.42,327.39 436.00,324.34 436.00,320.22 C436.00,316.47 435.41,313.23 434.24,310.50 C433.82,308.98 432.08,306.52 430.23,304.90 L 430.19 304.86 L 430.17 304.85 C428.04,302.97 426.80,302.24 425.17,302.18 L 425.17 302.18 C424.63,302.16 424.04,302.22 423.36,302.33 L 420.04 302.87 L 422.22 299.92 C423.42,298.30 425.39,296.32 426.61,295.52 C428.55,294.25 428.97,294.34 430.88,296.37 C432.72,298.33 433.76,298.57 438.79,298.21 C444.27,297.81 444.65,297.93 445.79,300.44 C446.46,301.90 447.00,305.30 447.00,307.99 C447.00,314.41 448.43,315.10 450.01,309.45 C451.16,305.37 451.19,298.36 450.44,292.79 C449.76,286.77 448.35,283.86 445.53,282.94 C443.78,282.19 441.66,282.35 439.13,283.44 C435.62,284.86 431.38,288.13 425.80,293.62 C422.75,296.64 420.68,299.25 419.32,302.18 C417.74,305.33 417.00,308.54 417.07,311.93 L 417.09 312.69 C417.03,313.87 417.00,315.13 417.00,316.48 L 417.00 323.97 C416.68,324.20 416.27,324.55 415.75,325.05 C415.28,325.49 414.67,325.99 414.01,326.49 L 412.49 327.45 C412.00,327.76 411.52,328.09 411.06,328.44 C410.99,328.49 410.91,328.53 410.84,328.57 C410.45,328.77 409.90,329.29 409.26,330.00 C407.68,331.55 406.31,333.40 405.11,335.62 C403.29,338.43 401.96,341.00 402.65,341.00 C402.90,341.00 404.52,340.26 406.26,339.36 ZM 242.90 343.84 C242.17,342.39 241.52,341.17 240.97,340.17 L 238.12 334.68 L 241.08 330.39 C244.58,325.30 247.52,318.67 247.95,315.05 C247.98,314.80 248.00,314.59 248.00,314.41 C248.00,314.37 248.00,314.33 248.00,314.29 C248.00,314.27 248.00,314.24 248.00,314.22 C248.00,312.39 247.60,311.99 246.97,312.80 L 246.97 312.80 C246.68,313.18 246.33,313.85 245.95,314.79 L 245.95 314.79 C245.65,315.53 245.33,316.44 245.00,317.50 C244.53,319.03 243.30,321.88 241.90,324.76 C241.40,325.77 240.89,326.76 240.39,327.66 C238.71,330.71 237.32,333.56 237.08,334.44 C233.88,342.10 235.39,345.66 242.22,351.35 C244.29,353.08 245.65,353.93 246.29,353.84 C246.53,354.06 246.68,354.07 246.73,353.84 C246.76,353.72 246.75,353.53 246.72,353.29 C246.82,352.24 245.82,349.70 243.74,345.55 C243.47,344.98 243.19,344.41 242.90,343.84 ZM 229.50 312.00 C229.86,311.42 228.82,311.00 227.00,311.00 C225.18,311.00 224.14,311.42 224.50,312.00 C224.84,312.55 225.96,313.00 227.00,313.00 C228.04,313.00 229.16,312.55 229.50,312.00 ZM 254.50 385.00 C256.18,384.28 255.97,384.13 253.25,384.07 C251.46,384.03 250.00,384.45 250.00,385.00 C250.00,386.19 251.74,386.19 254.50,385.00 ZM 355.04 293.04 C352.88,299.04 348.67,303.72 344.08,305.09 C348.61,303.74 352.75,298.83 355.04,293.04 ZM 328.81 295.96 C329.18,296.97 329.62,297.89 330.13,298.71 C331.27,300.55 334.03,303.00 336.27,304.14 C332.53,302.23 330.15,299.71 328.81,295.96 ZM 577.01 499.47 C576.28,495.27 575.19,490.62 573.84,485.92 C575.32,490.88 576.37,495.35 577.01,499.47 ZM 215.00 289.71 C215.32,291.41 215.85,293.01 216.71,295.05 C215.70,292.73 215.00,290.72 215.00,289.75 ZM 223.86 306.92 C223.72,306.85 223.56,306.73 223.39,306.56 L 223.40 306.57 L 223.43 306.59 C223.91,306.92 224.43,307.19 224.98,307.41 C224.57,307.26 224.18,307.10 223.86,306.92 Z" fill="rgb(242,213,189)"/>
<path d="M 0.00 324.00 L 0.00 0.00 L 324.00 0.00 L 648.00 0.00 L 648.00 324.00 L 648.00 648.00 L 497.25 647.85 C414.34,647.77 347.85,647.54 349.50,647.35 C351.15,647.16 356.77,646.52 362.00,645.94 C375.65,644.42 403.61,638.60 417.00,634.49 C470.35,618.10 513.44,592.42 552.07,554.00 C574.85,531.34 576.22,529.17 577.63,513.47 C578.42,504.56 576.77,494.49 572.31,481.06 C568.15,468.55 564.60,461.26 557.34,450.27 L 551.90 442.04 L 549.51 423.50 C546.09,396.91 542.31,389.78 527.71,382.38 C509.49,373.13 476.96,367.04 445.75,367.01 C436.19,367.00 436.00,366.95 436.00,364.66 C436.00,358.29 443.95,340.72 451.90,329.50 C460.16,317.86 462.58,314.06 465.10,308.80 C467.63,303.52 469.00,303.44 469.00,308.56 C469.00,310.45 469.38,312.00 469.84,312.00 C471.11,312.00 472.94,305.05 474.16,295.55 C474.77,290.87 475.65,287.29 476.13,287.58 C476.61,287.88 477.00,288.68 477.00,289.36 C477.00,291.32 483.02,299.00 484.56,299.00 C485.66,299.00 485.73,298.43 484.90,296.25 C483.38,292.26 479.98,277.68 480.46,277.20 C480.69,276.98 483.60,277.74 486.94,278.90 C493.42,281.14 499.49,281.64 500.50,280.00 C500.84,279.45 500.64,279.00 500.06,279.00 C498.20,279.00 490.95,271.79 486.37,265.37 L 481.93 259.15 L 483.87 253.32 C488.12,240.55 490.02,191.54 487.13,169.00 C482.67,134.12 476.02,119.95 453.17,96.62 C438.58,81.72 420.15,68.16 402.13,59.07 C391.88,53.89 373.49,48.24 359.56,45.97 C348.40,44.16 346.17,43.48 343.39,41.04 C338.79,37.00 333.83,35.63 326.35,36.33 C319.81,36.94 316.94,37.98 313.50,41.00 C312.21,42.14 308.94,43.00 304.27,43.44 C286.58,45.10 252.43,56.19 234.00,66.25 C205.04,82.07 185.23,101.91 176.86,123.48 C175.14,127.89 170.52,144.32 166.57,160.00 C162.63,175.68 158.98,189.21 158.45,190.08 C157.93,190.94 151.20,196.33 143.50,202.03 C109.34,227.36 99.00,237.95 99.00,247.60 C99.00,256.88 112.51,259.43 133.00,254.02 C137.12,252.93 140.73,252.03 141.00,252.02 C141.27,252.01 141.51,257.96 141.52,265.25 C141.53,273.50 141.97,279.25 142.70,280.50 C143.63,282.09 143.95,282.19 144.28,281.00 C144.50,280.17 146.10,273.68 147.82,266.57 C150.69,254.75 152.19,250.86 153.42,252.09 C154.27,252.94 158.25,278.46 158.31,283.50 C158.35,286.25 157.57,290.89 156.59,293.81 C153.36,303.38 156.41,301.38 165.12,288.22 C167.40,284.77 169.43,282.09 169.61,282.28 C169.80,282.47 171.06,286.42 172.40,291.06 C175.51,301.78 178.60,309.00 180.08,309.00 C180.79,309.00 181.00,308.14 180.62,306.75 C179.40,302.28 178.74,294.00 179.61,294.05 C180.10,294.09 182.67,298.47 185.32,303.80 C189.67,312.55 190.27,314.64 191.53,325.16 C195.37,357.29 201.51,373.32 218.22,394.84 C221.92,399.60 226.30,405.37 227.96,407.67 L 230.98 411.83 L 223.24 416.06 C213.26,421.52 204.57,427.75 199.35,433.18 C191.44,441.42 183.72,455.55 179.49,469.52 C177.99,474.46 175.28,481.20 173.45,484.50 C168.76,492.99 165.00,504.86 165.00,511.20 L 165.00 516.54 L 151.01 526.88 C136.32,537.75 126.82,546.95 120.23,556.68 C113.92,566.00 112.66,568.88 114.12,570.64 C114.80,571.47 121.47,576.75 128.93,582.37 C173.37,615.89 224.85,637.18 280.27,644.97 C288.10,646.07 296.30,647.13 298.50,647.32 C300.70,647.51 234.44,647.74 151.25,647.83 L 0.00 648.00 L 0.00 324.00 ZM 428.00 365.46 C428.00,363.57 430.91,359.00 432.12,359.00 C432.60,359.00 433.00,360.80 433.00,363.00 C433.00,366.60 432.75,367.00 430.50,367.00 C428.92,367.00 428.00,366.44 428.00,365.46 ZM 217.01 309.88 C215.64,309.33 214.15,308.24 213.71,307.44 C213.26,306.65 212.40,306.00 211.78,306.00 C209.45,306.00 202.11,297.09 201.42,293.43 C200.62,289.16 201.46,288.37 207.74,287.42 C212.86,286.64 215.00,287.33 215.00,289.75 C215.00,292.76 221.71,305.77 223.86,306.92 C224.96,307.52 226.80,308.00 227.93,308.00 C229.10,308.00 230.00,308.65 230.00,309.50 C230.00,310.65 228.78,310.99 224.75,310.94 C221.86,310.90 218.38,310.43 217.01,309.88 ZM 332.39 306.97 C322.86,306.43 322.05,306.20 318.10,303.08 C312.90,298.96 309.07,291.76 309.53,286.98 C309.72,285.06 309.90,283.18 309.94,282.79 C310.03,281.75 316.75,280.16 322.36,279.85 L 327.21 279.58 L 327.42 287.13 C327.68,296.26 330.15,301.02 336.27,304.14 C339.77,305.92 340.87,306.06 344.08,305.09 C349.05,303.60 353.59,298.23 355.54,291.50 C356.90,286.83 357.39,286.15 358.82,286.97 C363.08,289.41 363.16,289.55 361.89,292.34 C361.22,293.80 360.27,295.00 359.78,295.00 C359.29,295.00 359.15,295.43 359.47,295.95 C360.16,297.07 356.35,299.34 355.09,298.56 C354.62,298.26 354.29,298.77 354.36,299.69 C354.44,300.62 353.17,302.06 351.50,302.93 C349.85,303.79 348.27,304.81 347.98,305.19 C346.65,306.94 341.69,307.51 332.39,306.97 ZM 230.61 287.42 C229.60,284.80 229.92,283.00 231.38,283.00 C232.83,283.00 234.28,286.74 233.39,288.17 C232.58,289.49 231.27,289.13 230.61,287.42 ZM 346.01 284.51 C344.39,282.56 345.52,279.76 347.75,280.18 C349.96,280.60 350.84,286.00 348.69,286.00 C347.89,286.00 346.69,285.33 346.01,284.51 Z" fill="rgb(254,254,254)"/>
</g>
</svg>